<svg width="10" height="14" viewBox="0 0 10 14" fill="none" xmlns="http://www.w3.org/2000/svg">
<path d="M4.36719 13.3711C0.660156 8.03906 0 7.48047 0 5.5C0 2.80859 2.1582 0.625 4.875 0.625C7.56641 0.625 9.75 2.80859 9.75 5.5C9.75 7.48047 9.06445 8.03906 5.35742 13.3711C5.12891 13.7266 4.5957 13.7266 4.36719 13.3711ZM4.875 7.53125C5.99219 7.53125 6.90625 6.64258 6.90625 5.5C6.90625 4.38281 5.99219 3.46875 4.875 3.46875C3.73242 3.46875 2.84375 4.38281 2.84375 5.5C2.84375 6.64258 3.73242 7.53125 4.875 7.53125Z" fill="#006DE4"/>
</svg>
