<svg width="159" height="74" viewBox="0 0 159 74" fill="none" xmlns="http://www.w3.org/2000/svg">
<path d="M5.10229 21.2661V21.6092C5.10229 24.9841 7.78449 27.7218 11.0909 27.7218H12.3669C15.4744 27.7218 18.5544 26.9796 21.2778 25.4392C23.226 24.3399 25.9013 23.5347 28.9539 23.1986C28.2679 19.8798 27.0469 16.68 25.3731 13.7392C25.3114 15.6157 24.5568 17.4572 23.2671 18.8015C23.1025 17.4712 23.2671 16.0638 23.7747 14.8245C22.149 15.9588 20.2008 16.617 18.232 16.638C19.4462 15.0416 21.1474 13.7392 23.0339 13.1231C23.2054 13.0671 23.37 13.0251 23.5347 12.99C21.5384 12.4439 19.7137 11.2746 18.3966 9.6502C20.3174 9.61519 22.3136 10.1123 23.9462 11.1626C22.8898 9.02004 22.4439 6.56241 22.7389 4.18181C24.3235 5.84823 25.5103 8.01878 25.9356 10.3014C26.9646 8.84499 28.4326 7.6757 30.0378 6.94051C29.5507 8.887 28.4669 10.6655 27.0057 12.0098C28.3022 11.7927 29.6811 11.9678 30.909 12.4439C29.5027 13.2981 27.8083 13.6342 26.1825 13.4312C28.3022 16.4419 30.1338 19.6627 31.643 23.0306C31.8213 23.0306 31.9928 23.0166 32.178 23.0166C33.0012 23.0166 33.8038 23.0586 34.5927 23.1216C35.6697 21.1261 36.8633 19.1936 38.1667 17.3451C36.5409 17.5482 34.8534 17.2121 33.4402 16.3579C34.6682 15.8818 36.047 15.7067 37.3435 15.9238C35.8823 14.5794 34.7985 12.801 34.3114 10.8545C35.9098 11.5897 37.3847 12.759 38.4136 14.2154C38.8389 11.9328 40.0257 9.76222 41.6103 8.0958C41.9053 10.4764 41.4662 12.934 40.403 15.0766C42.0288 14.0263 44.025 13.5292 45.9526 13.5642C44.6355 15.1886 42.8039 16.3579 40.8146 16.904C40.9792 16.939 41.1438 16.9811 41.3153 17.0371C43.2018 17.6462 44.903 18.9556 46.1172 20.552C44.1484 20.531 42.2003 19.8728 40.5745 18.7385C41.089 19.9778 41.2467 21.3852 41.0821 22.7155C39.7993 21.3712 39.0447 19.5297 38.9761 17.6532C37.9472 19.4597 37.0897 21.3642 36.4243 23.3387C39.0447 23.7308 41.3496 24.459 43.0714 25.4392C45.7879 26.9796 48.868 27.7218 51.9824 27.7218H53.2583C56.5647 27.7218 59.2469 24.9841 59.2469 21.6092V21.2661C59.2469 14.5024 55.7141 8.24984 49.9724 4.86798C38.9555 -1.62266 25.3868 -1.62266 14.3768 4.86798C8.63511 8.24984 5.10229 14.5024 5.10229 21.2661ZM47.9351 16.778C47.9351 14.9715 49.3688 13.5152 51.1317 13.5152C52.8947 13.5152 54.3284 14.9785 54.3284 16.778C54.3284 18.5775 52.8947 20.0408 51.1317 20.0408C49.3688 20.0408 47.9351 18.5775 47.9351 16.778ZM14.6443 20.0968C15.1519 19.9568 15.7968 20.0758 16.1603 20.2929C16.2358 20.3419 16.2975 20.3909 16.3524 20.4469C16.4142 20.3979 16.4828 20.3419 16.5651 20.2999C16.9629 20.0968 17.6283 20.0128 18.1085 20.1669C17.6421 20.3209 17.3677 20.4329 17.1001 20.573C16.8326 20.713 16.6131 20.853 16.3044 21.0841C16.0369 20.839 15.8379 20.685 15.591 20.538C15.344 20.3909 15.0902 20.2649 14.6512 20.0968H14.6443ZM12.0582 16.848C12.5658 16.708 13.2106 16.827 13.5742 17.0441C13.6496 17.0931 13.7114 17.1421 13.7663 17.1981C13.828 17.1491 13.8966 17.0931 13.9789 17.0511C14.3768 16.848 15.0422 16.764 15.5224 16.918C15.0559 17.0721 14.7815 17.1841 14.514 17.3241C14.2464 17.4642 14.0269 17.6042 13.7182 17.8353C13.4507 17.5902 13.2518 17.4362 13.0048 17.2891C12.7579 17.1421 12.504 17.0161 12.065 16.848H12.0582ZM8.59395 19.5787C9.10157 19.4387 9.7464 19.5577 10.11 19.7748C10.1854 19.8238 10.2472 19.8728 10.302 19.9288C10.3638 19.8798 10.4324 19.8238 10.5147 19.7818C10.9126 19.5787 11.578 19.4947 12.0582 19.6487C11.5917 19.8028 11.3173 19.9148 11.0498 20.0548C10.7822 20.1949 10.5627 20.3349 10.254 20.566C9.98649 20.3209 9.78756 20.1669 9.5406 20.0198C9.29365 19.8728 9.03984 19.7468 8.60081 19.5787H8.59395Z" fill="#4210C1"/>
<path d="M9.35541 6.73054C6.51544 9.65028 4.58097 13.3892 3.82639 17.4503C2.6122 16.33 1.69298 15.3147 1.02072 14.3905C-2.64929 7.67578 4.38203 6.67453 9.35541 6.73054Z" fill="#4210C1"/>
<path d="M50.1647 57.6265L57.2097 48.3982C57.2097 48.3982 60.6671 56.2262 58.321 58.8168C58.3004 58.8448 58.2799 58.8658 58.2524 58.8939C58.0741 59.0759 57.8614 59.2299 57.6144 59.349C57.5801 59.363 57.5527 59.377 57.5184 59.391C57.4155 59.433 57.3126 59.475 57.196 59.503C57.1617 59.51 57.1274 59.524 57.0931 59.531C56.9422 59.566 56.7913 59.601 56.6198 59.615C56.4551 59.629 56.2768 59.636 56.0916 59.636C56.0435 59.636 55.9955 59.636 55.9475 59.636C55.7966 59.636 55.6388 59.615 55.4673 59.594C55.4193 59.594 55.3713 59.587 55.3233 59.58C55.1106 59.552 54.8842 59.51 54.6441 59.454C53.4986 59.1879 52.0923 58.6418 50.3568 57.7386C50.295 57.7106 50.2264 57.6685 50.1647 57.6335V57.6265Z" fill="#4210C1"/>
<path d="M9.03992 31.4539C12.3601 30.5717 15.8586 31.846 19.117 32.4341C22.8899 33.1203 26.7177 33.4284 30.5523 33.4774C35.8001 33.5474 41.041 33.1413 46.2476 32.5392C50.1097 32.098 55.7416 30.1516 58.4856 34.1286C61.1335 37.9655 57.875 44.0921 55.529 47.2849L48.6006 56.7093C44.9374 54.4687 38.1873 49.9736 38.1873 49.9736C37.7895 49.6025 37.7346 48.9863 38.057 48.5452L38.1736 48.3912C38.5646 47.859 39.0037 47.3689 39.4838 46.9278L46.2957 40.7032L45.1569 39.835C44.7796 39.5479 44.2789 39.5059 43.8673 39.723L40.7392 41.3684L39.5867 40.3391C39.2986 40.0801 38.8596 40.1291 38.6332 40.4442L38.1873 41.0533C37.961 41.3614 38.0364 41.8095 38.3588 42.0196L38.8733 42.3556L35.9716 43.882L34.8603 42.8948C34.5722 42.6357 34.1332 42.6847 33.9068 42.9998L33.4609 43.609C33.2345 43.917 33.31 44.3652 33.6324 44.5752L34.0989 44.8763L33.6598 45.1073C33.0425 45.4364 32.281 45.3244 31.7803 44.8273C30.8062 43.875 29.7978 42.9648 28.6453 42.2506C27.5272 41.5644 26.2512 41.0813 24.9616 41.0043C24.2687 40.9623 23.7543 41.6625 23.9875 42.3346C24.4197 43.581 25.236 44.6942 26.1895 45.5975C27.1773 46.5287 28.3229 47.2639 29.4891 47.9431C30.0927 48.3002 30.4083 49.0073 30.2779 49.7075L30.1819 50.1976L29.7703 49.8265C29.4822 49.5675 29.0432 49.6165 28.8168 49.9316L28.3709 50.5407C28.1445 50.8488 28.22 51.2969 28.5424 51.507L29.784 52.3192L29.1667 55.589L28.707 55.1759C28.4189 54.9168 27.9799 54.9658 27.7535 55.2809L27.3076 55.8901C27.0813 56.1982 27.1567 56.6463 27.4791 56.8563L28.7688 57.6965L28.1034 61.2254C28.0142 61.6945 28.1926 62.1707 28.5699 62.4577L29.7086 63.326L33.6461 54.9098C33.9274 54.3077 34.2635 53.7405 34.6545 53.2084L34.7643 53.0544C35.0867 52.6132 35.6835 52.4942 36.1431 52.7813C36.1431 52.7813 42.2689 58.1236 45.4039 61.0784L45.3902 61.0994C45.5136 61.2114 45.6371 61.3094 45.7606 61.4215C46.6386 62.1777 47.455 62.8218 48.2027 63.326C49.019 63.8721 49.9176 64.2922 50.8712 64.5023C52.2294 64.8103 53.2652 64.6633 54.0541 64.2082C53.2447 65.4965 51.8864 66.1757 49.7119 65.6926C49.5678 65.6576 49.4306 65.6155 49.2934 65.5735C49.2385 65.5595 49.1836 65.5455 49.1356 65.5245C48.2987 65.2585 47.503 64.8453 46.7758 64.3342C46.7758 64.3342 46.3986 64.0822 45.836 63.9141C44.9443 63.648 43.5723 63.585 42.4884 65.0624L38.1668 70.9439C35.1759 75.0189 29.1872 75.0189 26.1895 70.9439C23.1574 66.8198 20.1254 62.6888 17.0934 58.5648C12.8608 52.8023 7.54447 47.677 5.60314 40.5142C5.07494 38.5747 4.83484 36.4462 5.56884 34.5767C6.26169 32.8122 7.50332 31.888 9.05364 31.4749L9.03992 31.4539Z" fill="#4210C1"/>
<path style="mix-blend-mode:screen" d="M31.7597 73.8706C32.2948 70.2086 31.5676 66.3787 29.7772 63.1648L33.653 54.8887C33.9343 54.2936 34.2704 53.7195 34.6614 53.1943L34.7712 53.0403C35.0936 52.5992 35.6904 52.4801 36.15 52.7672C36.15 52.7672 42.2758 58.1096 45.4108 61.0643L45.3971 61.0853C45.5205 61.1973 45.644 61.2954 45.7675 61.4074C46.5495 62.0866 47.2835 62.6677 47.9626 63.1438C48.8613 63.767 49.8422 64.2641 50.9055 64.4952C52.2432 64.7893 53.2721 64.6422 54.0542 64.1941C53.2447 65.4824 51.8865 66.1616 49.7119 65.6785C49.5678 65.6435 49.4306 65.6015 49.2934 65.5594C49.2386 65.5454 49.1837 65.5314 49.1357 65.5104C48.2988 65.2444 47.503 64.8313 46.7759 64.3201C46.7759 64.3201 46.3986 64.0681 45.8361 63.9C44.9443 63.634 43.5723 63.5709 42.4885 65.0483L38.1668 70.9298C36.5753 73.1004 34.1332 74.1016 31.746 73.9616C31.746 73.9336 31.7529 73.9056 31.7597 73.8776V73.8706Z" fill="#4210C1"/>
<path style="mix-blend-mode:screen" d="M57.7447 43.3778C57.1685 44.7572 56.4276 46.0735 55.5359 47.2848L48.6074 56.7092C44.9443 54.4686 38.1942 49.9735 38.1942 49.9735C37.7964 49.6024 37.7415 48.9862 38.0639 48.5451L38.1736 48.3911C38.5647 47.8589 39.0037 47.3688 39.4839 46.9277L46.2957 40.7031C46.2957 40.7031 52.1814 44.141 57.7379 43.3778H57.7447Z" fill="#4210C1"/>
<path d="M94.3846 11.152V14.44H87.5206V17.992H92.6566V21.184H87.5206V28H83.4166V11.152H94.3846ZM100.646 16.84C101.126 16.104 101.726 15.528 102.446 15.112C103.166 14.68 103.966 14.464 104.846 14.464V18.808H103.718C102.694 18.808 101.926 19.032 101.414 19.48C100.902 19.912 100.646 20.68 100.646 21.784V28H96.5416V14.608H100.646V16.84ZM108.871 13.216C108.151 13.216 107.559 13.008 107.095 12.592C106.647 12.16 106.423 11.632 106.423 11.008C106.423 10.368 106.647 9.84 107.095 9.424C107.559 8.992 108.151 8.776 108.871 8.776C109.575 8.776 110.151 8.992 110.599 9.424C111.063 9.84 111.295 10.368 111.295 11.008C111.295 11.632 111.063 12.16 110.599 12.592C110.151 13.008 109.575 13.216 108.871 13.216ZM110.911 14.608V28H106.807V14.608H110.911ZM119.333 28.192C118.165 28.192 117.125 27.992 116.213 27.592C115.301 27.192 114.581 26.648 114.053 25.96C113.525 25.256 113.229 24.472 113.165 23.608H117.221C117.269 24.072 117.485 24.448 117.869 24.736C118.253 25.024 118.725 25.168 119.285 25.168C119.797 25.168 120.189 25.072 120.461 24.88C120.749 24.672 120.893 24.408 120.893 24.088C120.893 23.704 120.693 23.424 120.293 23.248C119.893 23.056 119.245 22.848 118.349 22.624C117.389 22.4 116.589 22.168 115.949 21.928C115.309 21.672 114.757 21.28 114.293 20.752C113.829 20.208 113.597 19.48 113.597 18.568C113.597 17.8 113.805 17.104 114.221 16.48C114.653 15.84 115.277 15.336 116.093 14.968C116.925 14.6 117.909 14.416 119.045 14.416C120.725 14.416 122.045 14.832 123.005 15.664C123.981 16.496 124.541 17.6 124.685 18.976H120.893C120.829 18.512 120.621 18.144 120.269 17.872C119.933 17.6 119.485 17.464 118.925 17.464C118.445 17.464 118.077 17.56 117.821 17.752C117.565 17.928 117.437 18.176 117.437 18.496C117.437 18.88 117.637 19.168 118.037 19.36C118.453 19.552 119.093 19.744 119.957 19.936C120.949 20.192 121.757 20.448 122.381 20.704C123.005 20.944 123.549 21.344 124.013 21.904C124.493 22.448 124.741 23.184 124.757 24.112C124.757 24.896 124.533 25.6 124.085 26.224C123.653 26.832 123.021 27.312 122.189 27.664C121.373 28.016 120.421 28.192 119.333 28.192ZM134.732 24.52V28H132.644C131.156 28 129.996 27.64 129.164 26.92C128.332 26.184 127.916 24.992 127.916 23.344V18.016H126.284V14.608H127.916V11.344H132.02V14.608H134.708V18.016H132.02V23.392C132.02 23.792 132.116 24.08 132.308 24.256C132.5 24.432 132.82 24.52 133.268 24.52H134.732ZM136.202 21.28C136.202 19.904 136.458 18.696 136.97 17.656C137.498 16.616 138.21 15.816 139.106 15.256C140.002 14.696 141.002 14.416 142.106 14.416C143.05 14.416 143.874 14.608 144.578 14.992C145.298 15.376 145.85 15.88 146.234 16.504V14.608H150.338V28H146.234V26.104C145.834 26.728 145.274 27.232 144.554 27.616C143.85 28 143.026 28.192 142.082 28.192C140.994 28.192 140.002 27.912 139.106 27.352C138.21 26.776 137.498 25.968 136.97 24.928C136.458 23.872 136.202 22.656 136.202 21.28ZM146.234 21.304C146.234 20.28 145.946 19.472 145.37 18.88C144.81 18.288 144.122 17.992 143.306 17.992C142.49 17.992 141.794 18.288 141.218 18.88C140.658 19.456 140.378 20.256 140.378 21.28C140.378 22.304 140.658 23.12 141.218 23.728C141.794 24.32 142.49 24.616 143.306 24.616C144.122 24.616 144.81 24.32 145.37 23.728C145.946 23.136 146.234 22.328 146.234 21.304ZM155.227 28.192C154.507 28.192 153.915 27.984 153.451 27.568C153.003 27.136 152.779 26.608 152.779 25.984C152.779 25.344 153.003 24.808 153.451 24.376C153.915 23.944 154.507 23.728 155.227 23.728C155.931 23.728 156.507 23.944 156.955 24.376C157.419 24.808 157.651 25.344 157.651 25.984C157.651 26.608 157.419 27.136 156.955 27.568C156.507 27.984 155.931 28.192 155.227 28.192ZM95.5366 45.152V48.44H91.0726V62H86.9686V48.44H82.5046V45.152H95.5366ZM103.692 62.192C102.38 62.192 101.196 61.912 100.14 61.352C99.1003 60.792 98.2763 59.992 97.6683 58.952C97.0763 57.912 96.7803 56.696 96.7803 55.304C96.7803 53.928 97.0843 52.72 97.6923 51.68C98.3003 50.624 99.1323 49.816 100.188 49.256C101.244 48.696 102.428 48.416 103.74 48.416C105.052 48.416 106.236 48.696 107.292 49.256C108.348 49.816 109.18 50.624 109.788 51.68C110.396 52.72 110.7 53.928 110.7 55.304C110.7 56.68 110.388 57.896 109.764 58.952C109.156 59.992 108.316 60.792 107.244 61.352C106.188 61.912 105.004 62.192 103.692 62.192ZM103.692 58.64C104.476 58.64 105.14 58.352 105.684 57.776C106.244 57.2 106.524 56.376 106.524 55.304C106.524 54.232 106.252 53.408 105.708 52.832C105.18 52.256 104.524 51.968 103.74 51.968C102.94 51.968 102.276 52.256 101.748 52.832C101.22 53.392 100.956 54.216 100.956 55.304C100.956 56.376 101.212 57.2 101.724 57.776C102.252 58.352 102.908 58.64 103.692 58.64ZM126.102 48.608V62H121.998V60.176C121.582 60.768 121.014 61.248 120.294 61.616C119.59 61.968 118.806 62.144 117.942 62.144C116.918 62.144 116.014 61.92 115.23 61.472C114.446 61.008 113.838 60.344 113.406 59.48C112.974 58.616 112.758 57.6 112.758 56.432V48.608H116.838V55.88C116.838 56.776 117.07 57.472 117.534 57.968C117.998 58.464 118.622 58.712 119.406 58.712C120.206 58.712 120.838 58.464 121.302 57.968C121.766 57.472 121.998 56.776 121.998 55.88V48.608H126.102ZM133.153 50.84C133.633 50.104 134.233 49.528 134.953 49.112C135.673 48.68 136.473 48.464 137.353 48.464V52.808H136.225C135.201 52.808 134.433 53.032 133.921 53.48C133.409 53.912 133.153 54.68 133.153 55.784V62H129.049V48.608H133.153V50.84ZM144.763 62.192C143.595 62.192 142.555 61.992 141.643 61.592C140.731 61.192 140.011 60.648 139.483 59.96C138.955 59.256 138.659 58.472 138.595 57.608H142.651C142.699 58.072 142.915 58.448 143.299 58.736C143.683 59.024 144.155 59.168 144.715 59.168C145.227 59.168 145.619 59.072 145.891 58.88C146.179 58.672 146.323 58.408 146.323 58.088C146.323 57.704 146.123 57.424 145.723 57.248C145.323 57.056 144.675 56.848 143.779 56.624C142.819 56.4 142.019 56.168 141.379 55.928C140.739 55.672 140.187 55.28 139.723 54.752C139.259 54.208 139.027 53.48 139.027 52.568C139.027 51.8 139.235 51.104 139.651 50.48C140.083 49.84 140.707 49.336 141.523 48.968C142.355 48.6 143.339 48.416 144.475 48.416C146.155 48.416 147.475 48.832 148.435 49.664C149.411 50.496 149.971 51.6 150.115 52.976H146.323C146.259 52.512 146.051 52.144 145.699 51.872C145.363 51.6 144.915 51.464 144.355 51.464C143.875 51.464 143.507 51.56 143.251 51.752C142.995 51.928 142.867 52.176 142.867 52.496C142.867 52.88 143.067 53.168 143.467 53.36C143.883 53.552 144.523 53.744 145.387 53.936C146.379 54.192 147.187 54.448 147.811 54.704C148.435 54.944 148.979 55.344 149.443 55.904C149.923 56.448 150.171 57.184 150.187 58.112C150.187 58.896 149.963 59.6 149.515 60.224C149.083 60.832 148.451 61.312 147.619 61.664C146.803 62.016 145.851 62.192 144.763 62.192Z" fill="#4210C1"/>
</svg>
